<svg xmlns="http://www.w3.org/2000/svg" viewBox="0 0 64 80" x="0px" y="0px"><path d="M12,31A10,10,0,1,0,22,41,10.011,10.011,0,0,0,12,31Zm0,18a8,8,0,1,1,8-8A8.009,8.009,0,0,1,12,49Z"/><path d="M12,37a4,4,0,1,0,4,4A4,4,0,0,0,12,37Zm0,6a2,2,0,1,1,2-2A2,2,0,0,1,12,43Z"/><path d="M52,31a9.924,9.924,0,0,0-3.433.62l-.866-1.8a12.089,12.089,0,0,1,3.912-.8c.094,0,.186-.014.281-.015a11.942,11.942,0,0,1,5.7,1.378,1,1,0,0,0,.931-1.77,13.9,13.9,0,0,0-6.472-1.6c-.019,0-.034-.011-.053-.011-.035,0-.068,0-.1,0-.178,0-.355.019-.533.027A13.9,13.9,0,0,0,46.83,28l-1.636-3.407A9.626,9.626,0,0,0,48,25a1,1,0,0,0,1-1V16a1,1,0,0,0-1-1,7.681,7.681,0,0,0-6.165,2.6L39.9,13.567A1,1,0,0,0,39,13H33a1,1,0,0,0,0,2h5.371l1.44,3H31.648a6.659,6.659,0,0,0-6.13,4.077A1.972,1.972,0,0,0,25,22H9a4,4,0,0,0-4,4,2,2,0,0,0,1.864,1.986,13.908,13.908,0,0,0-3.48,1.978A1,1,0,0,0,4.616,31.54,12,12,0,0,1,24,41l0,1.317a2.8,2.8,0,0,0,.556,2.15A1.952,1.952,0,0,0,26,45H37a2.935,2.935,0,0,0,3-3V41a11.929,11.929,0,0,1,1.43-5.674c.066-.123.142-.237.212-.357a12.087,12.087,0,0,1,3.515-3.814c.051-.035.1-.075.148-.109.117-.079.242-.145.361-.219.077-.048.156-.094.234-.141l.868,1.808A9.98,9.98,0,1,0,52,31ZM43,20c0-1.422,1.749-2.65,4-2.937v5.874a5.746,5.746,0,0,1-3.283-1.42l-.712-1.483C43.005,20.022,43,20.011,43,20ZM31.648,20h8.734l3,6H28.352A1.353,1.353,0,0,1,27,24.648,4.653,4.653,0,0,1,31.648,20ZM9,24H25v2H7A2,2,0,0,1,9,24ZM38,42a.947.947,0,0,1-1,1H26.008c-.017-.175-.013-.445-.011-.658L26,41a13.96,13.96,0,0,0-8.816-13H25a1.993,1.993,0,0,0,1.434-.611A3.327,3.327,0,0,0,28.352,28H44.611l.42.875c-.088.051-.174.106-.261.159-.2.119-.4.231-.591.359l-.019.015c-.3.2-.592.422-.878.649A.982.982,0,0,0,43,30H30a3.005,3.005,0,0,0-3,3.074v.852A3.005,3.005,0,0,0,30,37h8.59a13.8,13.8,0,0,0-.43,2H32a1,1,0,0,0,0,2h6Zm1.668-7.617c-.017.031-.038.06-.055.092-.009.017-.008.036-.016.054-.08.154-.152.314-.227.471H30a1.016,1.016,0,0,1-1-1.074v-.852A1.016,1.016,0,0,1,30,32H41.283a14.055,14.055,0,0,0-1.36,1.952C39.839,34.1,39.747,34.235,39.668,34.383ZM52,49a7.994,7.994,0,0,1-4.363-14.7l1.766,3.68a3.892,3.892,0,1,0,1.786-.9l-1.754-3.654A8,8,0,1,1,52,49Zm0-10a2,2,0,1,1-2,2,1.975,1.975,0,0,1,.412-1.2A1,1,0,0,0,51,40a.991.991,0,0,0,.991-1Z"/></svg>
