<svg data-name="Camada 1" xmlns="http://www.w3.org/2000/svg" viewBox="0 0 396 555"><defs><style>.cls-1{fill:#fd1f25;}</style></defs><path class="cls-1" d="M310,271.48a33.7,33.7,0,0,1-9.75,25.08,34.86,34.86,0,0,1-48.77,0c-6.56-6.57-9.94-14.93-9.94-25.08s3.38-18.51,9.94-25.08a33.23,33.23,0,0,1,24.29-10,32.85,32.85,0,0,1,24.08,9.76c6.57,6.57,10,14.92,10.15,25.28M161.83,109a33.78,33.78,0,0,1-9.76,25.08,33.3,33.3,0,0,1-24.47,10,33.18,33.18,0,0,1-24.29-10c-6.57-6.57-10-14.93-10-25.08s3.39-18.52,10-25.08A33.18,33.18,0,0,1,127.6,74a32.93,32.93,0,0,1,24.08,9.75c6.57,6.57,9.95,14.93,10.15,25.28m0,324.88A33.77,33.77,0,0,1,152.07,459,33.33,33.33,0,0,1,127.6,469,33.21,33.21,0,0,1,103.31,459c-6.57-6.57-10-14.93-10-25.08s3.39-18.51,10-25.08a33.18,33.18,0,0,1,24.29-9.95,32.93,32.93,0,0,1,24.08,9.75c6.57,6.57,9.95,14.93,10.15,25.28M353,271.68c0-21.49-7.37-39.61-22.09-54.14-14.73-14.73-33.05-22.1-55.14-22.1-15,0-28.19,3.48-39.75,10.25L187.9,157.58c11.28-13.5,16.92-29.7,16.92-48.35,0-21.49-7.36-39.6-22.09-54.13C168,40.37,149.69,33,127.6,33S87.19,40.37,72.46,55.1C57.72,69.63,50.37,87.74,50.37,109s7.35,39.41,22.09,54.14c14.73,14.53,33.24,21.9,55.33,21.9,14,0,26.44-3,37.39-8.82L214,225.08c-10.25,13.11-15.46,28.62-15.46,46.4q0,27.51,16.42,47.79l-48.4,48.4c-11.37-6.47-24.33-9.79-39-9.79-22.1,0-40.41,7.37-55.14,22.1-14.74,14.53-22.09,32.64-22.09,53.94s7.35,39.42,22.09,54.14C87.19,502.59,105.7,510,127.79,510s40.4-7.37,54.94-21.9c14.73-14.53,22.09-32.65,22.09-53.94,0-18.26-5.37-34.06-16-47.32l48.65-48.65c11.29,6.2,24.12,9.36,38.5,9.36,22.09,0,40.41-7.36,54.94-21.89C345.63,311.09,353,293,353,271.68"/></svg>