<svg 
	version="1.1" 
	xmlns="http://www.w3.org/2000/svg" 
	xmlns:xlink="http://www.w3.org/1999/xlink" 
	x="0px" y="0px"
	viewBox="0 0 396 555" 
	style="enable-background:new 0 0 396 555;" 
	xml:space="preserve"
>
	<style type="text/css">
		.st0{
			fill:none;
			stroke-width:8px;
			stroke-miterlimit:10;
			stroke: red;
		}
	</style>
	<path 
		class="st0" 
		d="
			M310,271.48c0.2,9.96-3.18,18.32-9.75,25.09c-6.57,6.57-14.72,9.95-24.48,9.95c-9.55,0-17.71-3.38-24.29-9.95
			c-6.57-6.57-9.95-14.94-9.95-25.09c0-10.15,3.38-18.51,9.95-25.08c6.58-6.57,14.73-9.96,24.29-9.96c9.36,0,17.52,3.19,24.08,9.75
			C306.42,252.77,309.81,261.12,310,271.48 M161.83,109.04c0.19,9.95-3.19,18.31-9.75,25.08c-6.57,6.57-14.73,9.96-24.48,9.96
			c-9.56,0-17.72-3.39-24.29-9.96c-6.57-6.57-9.96-14.93-9.96-25.08c0-10.15,3.39-18.52,9.96-25.09s14.72-9.95,24.29-9.95
			c9.35,0,17.51,3.19,24.08,9.75C158.25,90.33,161.63,98.69,161.83,109.04 M161.83,433.92c0.19,9.95-3.19,18.32-9.75,25.08
			c-6.57,6.57-14.73,9.96-24.48,9.96c-9.56,0-17.72-3.39-24.29-9.96c-6.57-6.57-9.96-14.93-9.96-25.08c0-10.15,3.39-18.51,9.96-25.09
			c6.57-6.57,14.72-9.95,24.29-9.95c9.35,0,17.51,3.19,24.08,9.75C158.25,415.21,161.63,423.57,161.83,433.92 M353,271.68
			c0-21.49-7.37-39.61-22.09-54.14c-14.73-14.73-33.05-22.1-55.14-22.1c-14.98,0-28.19,3.48-39.75,10.25l-48.12-48.11
			c11.29-13.5,16.92-29.7,16.92-48.34c0-21.49-7.36-39.61-22.09-54.14C168,40.37,149.69,33.01,127.6,33.01
			c-22.1,0-40.41,7.37-55.14,22.09c-14.73,14.53-22.09,32.65-22.09,53.95c0,21.29,7.36,39.4,22.09,54.14
			c14.73,14.53,33.24,21.9,55.33,21.9c13.98,0,26.44-2.98,37.39-8.82L214,225.08c-10.26,13.11-15.47,28.62-15.47,46.4
			c0,18.34,5.5,34.3,16.42,47.79l-48.4,48.4c-11.37-6.47-24.32-9.78-38.96-9.78c-22.1,0-40.41,7.37-55.14,22.09
			c-14.73,14.53-22.09,32.64-22.09,53.95s7.36,39.41,22.09,54.14c14.73,14.53,33.24,21.9,55.33,21.9c22.1,0,40.41-7.37,54.94-21.9
			c14.73-14.53,22.09-32.64,22.09-53.94c0-18.27-5.36-34.06-16-47.32l48.65-48.65c11.29,6.19,24.12,9.36,38.5,9.36
			c22.09,0,40.41-7.37,54.94-21.9C345.63,311.09,353,292.98,353,271.68"
	/>
</svg>
